<svg width="100" height="220" viewBox="0 0 100 220" fill="none" xmlns="http://www.w3.org/2000/svg">
<path d="M72.4903 208.664C74.8 207.809 77.5742 209.607 78.6862 212.678C79.7975 215.75 78.8269 218.933 76.5171 219.788C74.2067 220.641 71.4332 218.845 70.3212 215.772C69.2099 212.701 70.1806 209.518 72.491 208.664H72.4903Z" fill="#CCE1E4"/>
<path d="M63.7128 203.764C66.1295 203.976 67.8649 206.752 67.5902 209.967C67.3148 213.18 65.1332 215.613 62.7165 215.403C60.3006 215.19 58.5652 212.414 58.8399 209.2C59.1153 205.987 61.2969 203.553 63.7128 203.764Z" fill="#CCE1E4"/>
<path d="M82.5321 203.873C84.6528 202.613 87.7002 203.878 89.3397 206.698C90.9784 209.521 90.5879 212.827 88.4665 214.087C86.3457 215.346 83.2976 214.079 81.6589 211.259C80.0202 208.438 80.4113 205.131 82.5321 203.872V203.873Z" fill="#CCE1E4"/>
<path d="M93.891 200.531C92.516 202.55 89.2708 202.706 86.6424 200.878C84.0132 199.049 82.9972 195.93 84.3715 193.909C85.7465 191.89 88.9917 191.734 91.62 193.562C94.2484 195.39 95.2652 198.51 93.891 200.53V200.531Z" fill="#CCE1E4"/>
<path d="M79.7711 200.149C79.5088 201.983 78.3961 203.657 76.6182 204.505C74.8403 205.353 72.8551 205.157 71.2882 204.196C69.5557 203.133 68.4481 201.745 66.9558 201.138C65.4644 200.532 61.2859 202.339 58.6846 197.563C56.8474 194.19 58.5337 189.926 61.9782 188.283C64.5963 187.034 66.668 187.173 68.1895 186.448C69.7102 185.723 70.9211 184.017 73.5393 182.768C76.9837 181.125 81.3116 182.52 82.7196 186.098C84.7129 191.164 80.6758 193.275 80.1908 194.825C79.7059 196.374 80.0619 198.122 79.7718 200.149H79.7711Z" fill="#CCE1E4"/>
<path d="M77.778 147.381C80.0878 146.526 82.8619 148.324 83.9739 151.396C85.0852 154.468 84.1146 157.651 81.8049 158.505C79.4944 159.359 76.721 157.562 75.6089 154.49C74.4977 151.418 75.4683 148.235 77.7788 147.381H77.778Z" fill="#CCE1E4"/>
<path d="M69.0005 142.482C71.4172 142.694 73.1526 145.469 72.8779 148.684C72.6025 151.897 70.4209 154.331 68.0043 154.12C65.5883 153.908 63.8529 151.132 64.1276 147.918C64.403 144.704 66.5846 142.271 69.0005 142.482Z" fill="#CCE1E4"/>
<path d="M87.8198 142.591C89.9405 141.33 92.9879 142.596 94.6274 145.416C96.2661 148.238 95.8757 151.545 93.7542 152.804C91.6335 154.063 88.5853 152.797 86.9466 149.977C85.3079 147.155 85.6991 143.849 87.8198 142.59V142.591Z" fill="#CCE1E4"/>
<path d="M99.1787 139.248C97.8037 141.268 94.5585 141.424 91.9301 139.595C89.3009 137.766 88.2849 134.647 89.6592 132.627C91.0342 130.607 94.2794 130.451 96.9078 132.28C99.5362 134.108 100.553 137.227 99.1787 139.247V139.248Z" fill="#CCE1E4"/>
<path d="M85.0588 138.867C84.7966 140.701 83.6838 142.374 81.9059 143.222C80.128 144.07 78.1428 143.875 76.5759 142.914C74.8434 141.851 73.7358 140.462 72.2436 139.856C70.7521 139.249 66.5736 141.056 63.9723 136.281C62.1351 132.907 63.8214 128.643 67.2659 127C69.884 125.752 71.9557 125.891 73.4772 125.166C74.998 124.441 76.2089 122.735 78.827 121.486C82.2715 119.843 86.5994 121.237 88.0073 124.815C90.0006 129.882 85.9635 131.993 85.4786 133.543C84.9936 135.092 85.3496 136.84 85.0595 138.867H85.0588Z" fill="#CCE1E4"/>
<path d="M14.7684 87.8623C17.0782 87.007 19.8523 88.8051 20.9644 91.8768C22.0756 94.9486 21.105 98.1315 18.7953 98.986C16.4848 99.8399 13.7114 98.0433 12.5994 94.9708C11.4881 91.899 12.4587 88.7162 14.7692 87.8623H14.7684Z" fill="#CCE1E4"/>
<path d="M5.99094 82.963C8.40763 83.1748 10.143 85.9503 9.86833 89.165C9.59289 92.3782 7.41136 94.8117 4.99467 94.6013C2.57872 94.3888 0.843306 91.6125 1.11801 88.3986C1.39345 85.1853 3.57499 82.7519 5.99094 82.963Z" fill="#CCE1E4"/>
<path d="M24.8102 83.0717C26.9309 81.8113 29.9784 83.0769 31.6178 85.8969C33.2565 88.7191 32.8661 92.0256 30.7446 93.2853C28.6239 94.5442 25.5757 93.2779 23.937 90.4579C22.2983 87.6364 22.6895 84.3299 24.8102 83.0709V83.0717Z" fill="#CCE1E4"/>
<path d="M36.1691 79.729C34.7941 81.7485 31.5489 81.9047 28.9205 80.0763C26.2914 78.2472 25.2753 75.128 26.6496 73.1078C28.0246 71.0884 31.2698 70.9321 33.8982 72.7605C36.5266 74.5889 37.5434 77.7081 36.1691 79.7283V79.729Z" fill="#CCE1E4"/>
<path d="M22.0492 79.3475C21.787 81.1818 20.6742 82.8554 18.8963 83.7034C17.1184 84.5513 15.1332 84.3558 13.5663 83.3946C11.8338 82.3319 10.7262 80.9434 9.23398 80.3369C7.74251 79.7304 3.56404 81.5373 0.96275 76.7615C-0.874488 73.3883 0.811845 69.1243 4.2563 67.481C6.87444 66.2325 8.94609 66.3717 10.4676 65.6467C11.9884 64.9217 13.1993 63.2155 15.8174 61.9669C19.2619 60.3237 23.5898 61.7181 24.9977 65.2964C26.991 70.3625 22.9539 72.4738 22.469 74.0237C21.984 75.5729 22.3401 77.3206 22.05 79.3475H22.0492Z" fill="#CCE1E4"/>
<path d="M20.0561 26.5799C22.3659 25.7245 25.1401 27.5226 26.2521 30.5944C27.3633 33.6661 26.3927 36.849 24.083 37.7036C21.7725 38.5574 18.9991 36.7609 17.8871 33.6883C16.7758 30.6166 17.7464 27.4337 20.0569 26.5799H20.0561Z" fill="#CCE1E4"/>
<path d="M11.2787 21.6805C13.6953 21.8923 15.4308 24.6679 15.156 27.8825C14.8806 31.0958 12.6991 33.5292 10.2824 33.3189C7.86643 33.1063 6.13102 30.33 6.40572 27.1161C6.68116 23.9029 8.8627 21.4694 11.2787 21.6805Z" fill="#CCE1E4"/>
<path d="M30.0979 21.7892C32.2187 20.5288 35.2661 21.7944 36.9055 24.6144C38.5442 27.4366 38.1538 30.7431 36.0323 32.0028C33.9116 33.2617 30.8634 31.9954 29.2247 29.1754C27.586 26.3539 27.9772 23.0474 30.0979 21.7885V21.7892Z" fill="#CCE1E4"/>
<path d="M41.4568 18.4466C40.0818 20.466 36.8366 20.6223 34.2082 18.7939C31.5791 16.9647 30.563 13.8456 31.9373 11.8254C33.3123 9.8059 36.5575 9.64965 39.1859 11.478C41.8143 13.3064 42.8311 16.4256 41.4568 18.4458V18.4466Z" fill="#CCE1E4"/>
<path d="M27.3369 18.065C27.0747 19.8993 25.9619 21.573 24.184 22.4209C22.4061 23.2688 20.4209 23.0733 18.854 22.1121C17.1215 21.0494 16.0139 19.6609 14.5217 19.0544C13.0302 18.4479 8.85175 20.2548 6.25046 15.479C4.41322 12.1059 6.09956 7.84182 9.54401 6.19856C12.1621 4.95 14.2338 5.08923 15.7553 4.36423C17.2761 3.63924 18.487 1.93303 21.1051 0.684475C24.5496 -0.95879 28.8775 0.435654 30.2855 4.01396C32.2787 9.08001 28.2416 11.1913 27.7567 12.7413C27.2717 14.2905 27.6278 16.0382 27.3377 18.065H27.3369Z" fill="#CCE1E4"/>
</svg>
