<svg width="1024" height="86" viewBox="0 0 1024 86" fill="none" xmlns="http://www.w3.org/2000/svg">
<path d="M776.451 37.0742C777.995 39.7209 781.819 39.7209 783.362 37.0742L795.205 16.765C796.76 14.0984 794.836 10.7501 791.749 10.7501L768.064 10.7501C764.977 10.7501 763.054 14.0984 764.609 16.765L776.451 37.0742Z" fill="#CCE1E4"/>
<path d="M727.259 37.0742C728.803 39.7209 732.627 39.7209 734.17 37.0742L746.013 16.765C747.568 14.0984 745.644 10.7501 742.557 10.7501L718.872 10.7501C715.785 10.7501 713.862 14.0984 715.417 16.765L727.259 37.0742Z" fill="#CCE1E4"/>
<path d="M752.301 48.9258C753.845 46.2791 757.669 46.2791 759.212 48.9258L771.055 69.235C772.61 71.9016 770.686 75.2499 767.599 75.2499H743.914C740.827 75.2499 738.904 71.9016 740.459 69.235L752.301 48.9258Z" fill="#CCE1E4"/>
<path d="M801.607 48.9258C803.15 46.2791 806.975 46.2791 808.518 48.9258L820.361 69.235C821.916 71.9016 819.992 75.2499 816.905 75.2499H793.22C790.133 75.2499 788.21 71.9016 789.765 69.235L801.607 48.9258Z" fill="#CCE1E4"/>
<path d="M850.913 48.9258C852.456 46.2791 856.28 46.2791 857.824 48.9258L869.666 69.235C871.221 71.9016 869.298 75.2499 866.211 75.2499H842.526C839.439 75.2499 837.515 71.9016 839.07 69.235L850.913 48.9258Z" fill="#CCE1E4"/>
<path d="M825.757 37.0742C827.3 39.7209 831.124 39.7209 832.668 37.0742L844.51 16.765C846.065 14.0984 844.142 10.7501 841.055 10.7501L817.37 10.7501C814.283 10.7501 812.359 14.0984 813.914 16.765L825.757 37.0742Z" fill="#CCE1E4"/>
<path d="M875.176 37.0742C876.72 39.7209 880.544 39.7209 882.087 37.0742L893.93 16.765C895.485 14.0984 893.561 10.7501 890.474 10.7501L866.789 10.7501C863.702 10.7501 861.779 14.0984 863.334 16.765L875.176 37.0742Z" fill="#CCE1E4"/>
<path d="M925.374 37.0742C926.918 39.7209 930.742 39.7209 932.285 37.0742L944.128 16.765C945.683 14.0984 943.759 10.7501 940.672 10.7501L916.987 10.7501C913.9 10.7501 911.977 14.0984 913.532 16.765L925.374 37.0742Z" fill="#CCE1E4"/>
<path d="M900.219 48.9258C901.762 46.2791 905.586 46.2791 907.129 48.9258L918.972 69.235C920.527 71.9016 918.603 75.2499 915.517 75.2499H891.831C888.745 75.2499 886.821 71.9016 888.376 69.235L900.219 48.9258Z" fill="#CCE1E4"/>
<path d="M998.83 48.9258C1000.37 46.2791 1004.2 46.2791 1005.74 48.9258L1017.58 69.235C1019.14 71.9016 1017.21 75.2499 1014.13 75.2499H990.443C987.356 75.2499 985.432 71.9016 986.987 69.235L998.83 48.9258Z" fill="#CCE1E4"/>
<path d="M949.638 48.9258C951.181 46.2791 955.005 46.2791 956.549 48.9258L968.391 69.235C969.946 71.9016 968.023 75.2499 964.936 75.2499H941.251C938.164 75.2499 936.24 71.9016 937.795 69.235L949.638 48.9258Z" fill="#CCE1E4"/>
<path d="M974.68 37.0742C976.224 39.7209 980.048 39.7209 981.591 37.0742L993.434 16.765C994.989 14.0984 993.065 10.7501 989.978 10.7501L966.293 10.7501C963.206 10.7501 961.283 14.0984 962.838 16.765L974.68 37.0742Z" fill="#CCE1E4"/>
<path d="M949.524 48.9258C951.068 46.2791 954.892 46.2791 956.435 48.9258L968.278 69.235C969.833 71.9016 967.909 75.2499 964.822 75.2499H941.137C938.05 75.2499 936.127 71.9016 937.682 69.235L949.524 48.9258Z" fill="#CCE1E4"/>
<path d="M67.4511 48.9258C68.9945 46.2791 72.8187 46.2791 74.362 48.9258L86.2046 69.235C87.7596 71.9016 85.836 75.2499 82.7492 75.2499H59.064C55.9771 75.2499 54.0536 71.9016 55.6086 69.235L67.4511 48.9258Z" fill="#CCE1E4"/>
<path d="M18.2592 48.9258C19.8026 46.2791 23.6267 46.2791 25.1701 48.9258L37.0127 69.235C38.5676 71.9016 36.6441 75.2499 33.5572 75.2499H9.87205C6.78517 75.2499 4.86165 71.9016 6.4166 69.235L18.2592 48.9258Z" fill="#CCE1E4"/>
<path d="M43.3014 37.0742C44.8448 39.7209 48.6689 39.7209 50.2123 37.0742L62.0549 16.765C63.6098 14.0984 61.6863 10.7501 58.5995 10.7501L34.9143 10.7501C31.8274 10.7501 29.9039 14.0984 31.4588 16.765L43.3014 37.0742Z" fill="#CCE1E4"/>
<path d="M92.6071 37.0742C94.1505 39.7209 97.9746 39.7209 99.518 37.0742L111.361 16.765C112.916 14.0984 110.992 10.7501 107.905 10.7501L84.22 10.7501C81.1331 10.7501 79.2096 14.0984 80.7645 16.765L92.6071 37.0742Z" fill="#CCE1E4"/>
<path d="M141.913 37.0742C143.456 39.7209 147.28 39.7209 148.824 37.0742L160.666 16.765C162.221 14.0984 160.298 10.7501 157.211 10.7501L133.526 10.7501C130.439 10.7501 128.515 14.0984 130.07 16.765L141.913 37.0742Z" fill="#CCE1E4"/>
<path d="M116.757 48.9258C118.3 46.2791 122.124 46.2791 123.668 48.9258L135.51 69.235C137.065 71.9016 135.142 75.2499 132.055 75.2499H108.37C105.283 75.2499 103.359 71.9016 104.914 69.235L116.757 48.9258Z" fill="#CCE1E4"/>
<path d="M166.176 48.9258C167.72 46.2791 171.544 46.2791 173.087 48.9258L184.93 69.235C186.485 71.9016 184.561 75.2499 181.474 75.2499H157.789C154.702 75.2499 152.779 71.9016 154.334 69.235L166.176 48.9258Z" fill="#CCE1E4"/>
<path d="M216.374 48.9258C217.918 46.2791 221.742 46.2791 223.285 48.9258L235.128 69.235C236.683 71.9016 234.759 75.2499 231.673 75.2499H207.987C204.9 75.2499 202.977 71.9016 204.532 69.235L216.374 48.9258Z" fill="#CCE1E4"/>
<path d="M191.219 37.0742C192.762 39.7209 196.586 39.7209 198.129 37.0742L209.972 16.765C211.527 14.0984 209.603 10.7501 206.517 10.7501L182.831 10.7501C179.745 10.7501 177.821 14.0984 179.376 16.765L191.219 37.0742Z" fill="#CCE1E4"/>
<path d="M289.83 37.0742C291.373 39.7209 295.197 39.7209 296.741 37.0742L308.583 16.765C310.138 14.0984 308.215 10.7501 305.128 10.7501L281.443 10.7501C278.356 10.7501 276.432 14.0984 277.987 16.765L289.83 37.0742Z" fill="#CCE1E4"/>
<path d="M240.638 37.0742C242.181 39.7209 246.005 39.7209 247.549 37.0742L259.391 16.765C260.946 14.0984 259.023 10.7501 255.936 10.7501L232.251 10.7501C229.164 10.7501 227.24 14.0984 228.795 16.765L240.638 37.0742Z" fill="#CCE1E4"/>
<path d="M265.68 48.9258C267.224 46.2791 271.048 46.2791 272.591 48.9258L284.434 69.235C285.989 71.9016 284.065 75.2499 280.978 75.2499H257.293C254.206 75.2499 252.283 71.9016 253.838 69.235L265.68 48.9258Z" fill="#CCE1E4"/>
<path d="M240.524 37.0742C242.068 39.7209 245.892 39.7209 247.435 37.0742L259.278 16.765C260.833 14.0984 258.909 10.7501 255.822 10.7501L232.137 10.7501C229.05 10.7501 227.127 14.0984 228.682 16.765L240.524 37.0742Z" fill="#CCE1E4"/>
</svg>
